# xmcd
#
# Track frame offsets:
#	150
#	16258
#	35724
#	54631
#	73897
#	93199
#	111836
#	131978
#	151250
#	168891
#	192792
#	208491
#
# Disc length: 3121 seconds
#
# Revision: 1
# Processed by: cddbd v1.5.2PL0 Copyright (c) Steve Scherf et al.
# Submitted via: audiograbber 1.83.01
#
DISCID=ab0c2f0c
DTITLE=Des'Ree - Des'Ree - Dream Soldier
DYEAR=2003
DGENRE=
TTITLE0=It's Okay (Album Version)
TTITLE1=Why?  
TTITLE2=Righteous Night 
TTITLE3=Doesn't Matter 
TTITLE4=Human
TTITLE5=Cool Morning
TTITLE6=Something Special
TTITLE7=Love Beautiful
TTITLE8=Nothing To Lose
TTITLE9=Fate
TTITLE10=It's Okay (Stargate Radio Edit)
TTITLE11=Holding On For Dear Life
EXTD=
EXTT0=
EXTT1=
EXTT2=
EXTT3=
EXTT4=
EXTT5=
EXTT6=
EXTT7=
EXTT8=
EXTT9=
EXTT10=
EXTT11=
PLAYORDER=
